<mxfile host="Electron" modified="2023-04-11T21:02:25.694Z" agent="Mozilla/5.0 (Windows NT 10.0; Win64; x64) AppleWebKit/537.36 (KHTML, like Gecko) draw.io/21.1.2 Chrome/106.0.5249.199 Electron/21.4.3 Safari/537.36" etag="OTMK5NNTwFwOYY5-XLsa" version="21.1.2" type="device">
  <diagram name="Page-1" id="b5b7bab2-c9e2-2cf4-8b2a-24fd1a2a6d21">
    <mxGraphModel dx="1201" dy="699" grid="1" gridSize="10" guides="1" tooltips="1" connect="1" arrows="1" fold="1" page="1" pageScale="1" pageWidth="827" pageHeight="1169" background="none" math="0" shadow="0">
      <root>
        <mxCell id="0" />
        <mxCell id="1" parent="0" />
        <mxCell id="6e0c8c40b5770093-72" value="" style="shape=folder;fontStyle=1;spacingTop=10;tabWidth=194;tabHeight=22;tabPosition=left;html=1;rounded=0;shadow=0;comic=0;labelBackgroundColor=none;strokeWidth=1;fillColor=none;fontFamily=Verdana;fontSize=10;align=center;" parent="1" vertex="1">
          <mxGeometry x="413" y="400" width="567" height="520" as="geometry" />
        </mxCell>
        <mxCell id="6e0c8c40b5770093-47" value="" style="shape=folder;fontStyle=1;spacingTop=10;tabWidth=123;tabHeight=24;tabPosition=left;html=1;rounded=0;shadow=0;comic=0;labelBackgroundColor=none;strokeWidth=1;fontFamily=Verdana;fontSize=10;align=center;" parent="1" vertex="1">
          <mxGeometry x="440.5" y="776.5" width="519.5" height="130" as="geometry" />
        </mxCell>
        <mxCell id="6e0c8c40b5770093-6" value="" style="group" parent="1" vertex="1" connectable="0">
          <mxGeometry x="643.75" y="340" width="112" height="70" as="geometry" />
        </mxCell>
        <mxCell id="6e0c8c40b5770093-4" value="用户" style="shape=folder;fontStyle=1;spacingTop=10;tabWidth=50;tabHeight=17;tabPosition=left;html=1;rounded=0;shadow=0;comic=0;labelBackgroundColor=none;strokeWidth=1;fontFamily=Verdana;fontSize=10;align=center;" parent="6e0c8c40b5770093-6" vertex="1">
          <mxGeometry width="112" height="70" as="geometry" />
        </mxCell>
        <mxCell id="6e0c8c40b5770093-5" value="" style="triangle;whiteSpace=wrap;html=1;rounded=0;shadow=0;comic=0;labelBackgroundColor=none;strokeWidth=1;fontFamily=Verdana;fontSize=10;align=center;rotation=-90;" parent="6e0c8c40b5770093-6" vertex="1">
          <mxGeometry x="86.15384615384616" y="25" width="12.923076923076923" height="20" as="geometry" />
        </mxCell>
        <mxCell id="6e0c8c40b5770093-18" value="" style="group" parent="1" vertex="1" connectable="0">
          <mxGeometry x="440" y="430" width="520" height="130" as="geometry" />
        </mxCell>
        <mxCell id="6e0c8c40b5770093-11" value="" style="shape=folder;fontStyle=1;spacingTop=10;tabWidth=123;tabHeight=24;tabPosition=left;html=1;rounded=0;shadow=0;comic=0;labelBackgroundColor=none;strokeWidth=1;fontFamily=Verdana;fontSize=10;align=center;" parent="6e0c8c40b5770093-18" vertex="1">
          <mxGeometry width="520" height="130" as="geometry" />
        </mxCell>
        <mxCell id="co7zm-NExlbX-ooihcgG-2" value="表示层" style="text;html=1;strokeColor=none;fillColor=none;align=center;verticalAlign=middle;whiteSpace=wrap;rounded=0;fontSize=12;" parent="6e0c8c40b5770093-18" vertex="1">
          <mxGeometry y="-3" width="90" height="30" as="geometry" />
        </mxCell>
        <mxCell id="co7zm-NExlbX-ooihcgG-12" value="" style="triangle;whiteSpace=wrap;html=1;rounded=0;shadow=0;comic=0;labelBackgroundColor=none;strokeColor=#000000;strokeWidth=1;fillColor=#ffffff;fontFamily=Verdana;fontSize=10;fontColor=#000000;align=center;rotation=-90;" parent="6e0c8c40b5770093-18" vertex="1">
          <mxGeometry x="100" width="15" height="20" as="geometry" />
        </mxCell>
        <mxCell id="co7zm-NExlbX-ooihcgG-13" value="分析报告界面" style="shape=folder;fontStyle=1;spacingTop=10;tabWidth=50;tabHeight=17;tabPosition=left;html=1;rounded=0;shadow=0;comic=0;labelBackgroundColor=none;strokeColor=#000000;strokeWidth=1;fillColor=#ffffff;fontFamily=Verdana;fontSize=10;fontColor=#000000;align=center;" parent="6e0c8c40b5770093-18" vertex="1">
          <mxGeometry x="280" y="40" width="102" height="70" as="geometry" />
        </mxCell>
        <mxCell id="7v98zSWwHf_MlhIp9o9r-1" value="心律类型详情界面" style="shape=folder;fontStyle=1;spacingTop=10;tabWidth=50;tabHeight=17;tabPosition=left;html=1;rounded=0;shadow=0;comic=0;labelBackgroundColor=none;strokeColor=#000000;strokeWidth=1;fillColor=#ffffff;fontFamily=Verdana;fontSize=10;fontColor=#000000;align=center;" vertex="1" parent="6e0c8c40b5770093-18">
          <mxGeometry x="20" y="40" width="100" height="70" as="geometry" />
        </mxCell>
        <mxCell id="7v98zSWwHf_MlhIp9o9r-8" value="时间范围选择器" style="shape=folder;fontStyle=1;spacingTop=10;tabWidth=50;tabHeight=17;tabPosition=left;html=1;rounded=0;shadow=0;comic=0;labelBackgroundColor=none;strokeColor=#000000;strokeWidth=1;fillColor=#ffffff;fontFamily=Verdana;fontSize=10;fontColor=#000000;align=center;" vertex="1" parent="6e0c8c40b5770093-18">
          <mxGeometry x="410" y="40" width="102" height="70" as="geometry" />
        </mxCell>
        <mxCell id="7v98zSWwHf_MlhIp9o9r-9" style="rounded=0;html=1;dashed=1;labelBackgroundColor=none;startFill=0;endArrow=open;endFill=0;endSize=10;fontFamily=Verdana;fontSize=10;" edge="1" parent="6e0c8c40b5770093-18" source="co7zm-NExlbX-ooihcgG-13" target="7v98zSWwHf_MlhIp9o9r-8">
          <mxGeometry relative="1" as="geometry">
            <mxPoint x="287" y="-10" as="sourcePoint" />
            <mxPoint x="331" y="77" as="targetPoint" />
          </mxGeometry>
        </mxCell>
        <mxCell id="7v98zSWwHf_MlhIp9o9r-10" value="心律类型简述视图" style="shape=folder;fontStyle=1;spacingTop=10;tabWidth=50;tabHeight=17;tabPosition=left;html=1;rounded=0;shadow=0;comic=0;labelBackgroundColor=none;strokeColor=#000000;strokeWidth=1;fillColor=#ffffff;fontFamily=Verdana;fontSize=10;fontColor=#000000;align=center;" vertex="1" parent="6e0c8c40b5770093-18">
          <mxGeometry x="150" y="40" width="100" height="70" as="geometry" />
        </mxCell>
        <mxCell id="7v98zSWwHf_MlhIp9o9r-11" style="rounded=0;html=1;dashed=1;labelBackgroundColor=none;startFill=0;endArrow=open;endFill=0;endSize=10;fontFamily=Verdana;fontSize=10;" edge="1" parent="6e0c8c40b5770093-18" source="co7zm-NExlbX-ooihcgG-13" target="7v98zSWwHf_MlhIp9o9r-10">
          <mxGeometry relative="1" as="geometry">
            <mxPoint x="301" y="-10" as="sourcePoint" />
            <mxPoint x="371" y="67" as="targetPoint" />
          </mxGeometry>
        </mxCell>
        <mxCell id="6e0c8c40b5770093-67" style="edgeStyle=none;rounded=0;html=1;dashed=1;labelBackgroundColor=none;startFill=0;endArrow=open;endFill=0;endSize=10;fontFamily=Verdana;fontSize=10;entryX=0;entryY=0;entryDx=112;entryDy=30.25;entryPerimeter=0;" parent="1" source="7v98zSWwHf_MlhIp9o9r-6" edge="1" target="6e0c8c40b5770093-49">
          <mxGeometry relative="1" as="geometry">
            <mxPoint x="700" y="800" as="targetPoint" />
          </mxGeometry>
        </mxCell>
        <mxCell id="6e0c8c40b5770093-33" value="" style="shape=folder;fontStyle=1;spacingTop=10;tabWidth=123;tabHeight=24;tabPosition=left;html=1;rounded=0;shadow=0;comic=0;labelBackgroundColor=none;strokeColor=#000000;strokeWidth=1;fillColor=#ffffff;fontFamily=Verdana;fontSize=10;fontColor=#000000;align=center;" parent="1" vertex="1">
          <mxGeometry x="440" y="600" width="519.5" height="120" as="geometry" />
        </mxCell>
        <mxCell id="6e0c8c40b5770093-69" style="edgeStyle=elbowEdgeStyle;rounded=0;html=1;entryX=0.643;entryY=0.246;entryPerimeter=0;dashed=1;labelBackgroundColor=none;startFill=0;endArrow=open;endFill=0;endSize=10;fontFamily=Verdana;fontSize=10;" parent="1" source="co7zm-NExlbX-ooihcgG-6" target="6e0c8c40b5770093-56" edge="1">
          <mxGeometry relative="1" as="geometry" />
        </mxCell>
        <mxCell id="6e0c8c40b5770093-48" value="" style="triangle;whiteSpace=wrap;html=1;rounded=0;shadow=0;comic=0;labelBackgroundColor=none;strokeWidth=1;fontFamily=Verdana;fontSize=10;align=center;rotation=-90;" parent="1" vertex="1">
          <mxGeometry x="537" y="776.5" width="15" height="20" as="geometry" />
        </mxCell>
        <mxCell id="6e0c8c40b5770093-49" value="数据库模块" style="shape=folder;fontStyle=1;spacingTop=10;tabWidth=50;tabHeight=17;tabPosition=left;html=1;rounded=0;shadow=0;comic=0;labelBackgroundColor=none;strokeWidth=1;fontFamily=Verdana;fontSize=10;align=center;" parent="1" vertex="1">
          <mxGeometry x="600" y="820" width="112" height="70" as="geometry" />
        </mxCell>
        <mxCell id="6e0c8c40b5770093-51" value="" style="triangle;whiteSpace=wrap;html=1;rounded=0;shadow=0;comic=0;labelBackgroundColor=none;strokeColor=#000000;strokeWidth=1;fillColor=#ffffff;fontFamily=Verdana;fontSize=10;fontColor=#000000;align=center;rotation=-90;" parent="1" vertex="1">
          <mxGeometry x="537" y="600" width="15" height="20" as="geometry" />
        </mxCell>
        <mxCell id="6e0c8c40b5770093-55" value="" style="group" parent="1" vertex="1" connectable="0">
          <mxGeometry x="820" y="940" width="112" height="70" as="geometry" />
        </mxCell>
        <mxCell id="6e0c8c40b5770093-56" value="服务器" style="shape=folder;fontStyle=1;spacingTop=10;tabWidth=50;tabHeight=17;tabPosition=left;html=1;rounded=0;shadow=0;comic=0;labelBackgroundColor=none;strokeWidth=1;fontFamily=Verdana;fontSize=10;align=center;" parent="6e0c8c40b5770093-55" vertex="1">
          <mxGeometry width="111.99999999999996" height="70" as="geometry" />
        </mxCell>
        <mxCell id="6e0c8c40b5770093-57" value="" style="triangle;whiteSpace=wrap;html=1;rounded=0;shadow=0;comic=0;labelBackgroundColor=none;strokeWidth=1;fontFamily=Verdana;fontSize=10;align=center;rotation=-90;" parent="6e0c8c40b5770093-55" vertex="1">
          <mxGeometry x="86.1538461538461" y="25" width="12.923076923076922" height="20" as="geometry" />
        </mxCell>
        <mxCell id="6e0c8c40b5770093-58" style="rounded=0;html=1;dashed=1;labelBackgroundColor=none;startFill=0;endArrow=open;endFill=0;endSize=10;fontFamily=Verdana;fontSize=10;" parent="1" source="6e0c8c40b5770093-4" target="co7zm-NExlbX-ooihcgG-13" edge="1">
          <mxGeometry relative="1" as="geometry" />
        </mxCell>
        <mxCell id="6e0c8c40b5770093-60" value="&amp;lt;&amp;lt;改&amp;gt;&amp;gt;" style="rounded=0;html=1;dashed=1;labelBackgroundColor=none;startFill=0;endArrow=open;endFill=0;endSize=10;fontFamily=Verdana;fontSize=10;entryX=0;entryY=0;entryDx=50;entryDy=0;entryPerimeter=0;" parent="1" source="7v98zSWwHf_MlhIp9o9r-8" target="7v98zSWwHf_MlhIp9o9r-4" edge="1">
          <mxGeometry relative="1" as="geometry" />
        </mxCell>
        <mxCell id="6e0c8c40b5770093-73" value="&amp;lt;&amp;lt;model&amp;gt;&amp;gt; 分析报告模块" style="text;html=1;align=left;verticalAlign=top;spacingTop=-4;fontSize=10;fontFamily=Verdana" parent="1" vertex="1">
          <mxGeometry x="413" y="400" width="130" height="20" as="geometry" />
        </mxCell>
        <mxCell id="co7zm-NExlbX-ooihcgG-4" value="领域层" style="text;html=1;strokeColor=none;fillColor=none;align=center;verticalAlign=middle;whiteSpace=wrap;rounded=0;fontSize=12;" parent="1" vertex="1">
          <mxGeometry x="440" y="595" width="90" height="30" as="geometry" />
        </mxCell>
        <mxCell id="co7zm-NExlbX-ooihcgG-5" value="数据层" style="text;html=1;strokeColor=none;fillColor=none;align=center;verticalAlign=middle;whiteSpace=wrap;rounded=0;fontSize=12;" parent="1" vertex="1">
          <mxGeometry x="440.5" y="771.5" width="90" height="30" as="geometry" />
        </mxCell>
        <mxCell id="co7zm-NExlbX-ooihcgG-6" value="服务器模块" style="shape=folder;fontStyle=1;spacingTop=10;tabWidth=50;tabHeight=17;tabPosition=left;html=1;rounded=0;shadow=0;comic=0;labelBackgroundColor=none;strokeWidth=1;fontFamily=Verdana;fontSize=10;align=center;" parent="1" vertex="1">
          <mxGeometry x="820" y="820" width="112" height="70" as="geometry" />
        </mxCell>
        <mxCell id="co7zm-NExlbX-ooihcgG-7" value="" style="group" parent="1" vertex="1" connectable="0">
          <mxGeometry x="600" y="940" width="112" height="70" as="geometry" />
        </mxCell>
        <mxCell id="co7zm-NExlbX-ooihcgG-8" value="本地文件" style="shape=folder;fontStyle=1;spacingTop=10;tabWidth=50;tabHeight=17;tabPosition=left;html=1;rounded=0;shadow=0;comic=0;labelBackgroundColor=none;strokeWidth=1;fontFamily=Verdana;fontSize=10;align=center;" parent="co7zm-NExlbX-ooihcgG-7" vertex="1">
          <mxGeometry width="112.00000000000001" height="70" as="geometry" />
        </mxCell>
        <mxCell id="co7zm-NExlbX-ooihcgG-9" value="" style="triangle;whiteSpace=wrap;html=1;rounded=0;shadow=0;comic=0;labelBackgroundColor=none;strokeWidth=1;fontFamily=Verdana;fontSize=10;align=center;rotation=-90;" parent="co7zm-NExlbX-ooihcgG-7" vertex="1">
          <mxGeometry x="86.15384615384616" y="25" width="12.923076923076922" height="20.000000000000004" as="geometry" />
        </mxCell>
        <mxCell id="co7zm-NExlbX-ooihcgG-10" style="edgeStyle=elbowEdgeStyle;rounded=0;html=1;dashed=1;labelBackgroundColor=none;startFill=0;endArrow=open;endFill=0;endSize=10;fontFamily=Verdana;fontSize=10;entryX=0.626;entryY=0.258;entryDx=0;entryDy=0;entryPerimeter=0;" parent="1" source="6e0c8c40b5770093-49" target="co7zm-NExlbX-ooihcgG-8" edge="1">
          <mxGeometry relative="1" as="geometry">
            <mxPoint x="699.5" y="900.5" as="sourcePoint" />
            <mxPoint x="699.5" y="983.5" as="targetPoint" />
            <Array as="points">
              <mxPoint x="670" y="920" />
              <mxPoint x="639" y="920" />
            </Array>
          </mxGeometry>
        </mxCell>
        <mxCell id="co7zm-NExlbX-ooihcgG-11" value="分析报告数据" style="shape=folder;fontStyle=1;spacingTop=10;tabWidth=50;tabHeight=17;tabPosition=left;html=1;rounded=0;shadow=0;comic=0;labelBackgroundColor=none;strokeColor=#000000;strokeWidth=1;fillColor=#ffffff;fontFamily=Verdana;fontSize=10;fontColor=#000000;align=center;" parent="1" vertex="1">
          <mxGeometry x="471" y="640" width="112" height="60" as="geometry" />
        </mxCell>
        <mxCell id="7v98zSWwHf_MlhIp9o9r-2" style="rounded=0;html=1;dashed=1;labelBackgroundColor=none;startFill=0;endArrow=open;endFill=0;endSize=10;fontFamily=Verdana;fontSize=10;entryX=0;entryY=0;entryDx=81;entryDy=17;entryPerimeter=0;" edge="1" parent="1" source="6e0c8c40b5770093-4" target="7v98zSWwHf_MlhIp9o9r-1">
          <mxGeometry relative="1" as="geometry">
            <mxPoint x="698" y="420" as="sourcePoint" />
            <mxPoint x="671" y="497" as="targetPoint" />
          </mxGeometry>
        </mxCell>
        <mxCell id="7v98zSWwHf_MlhIp9o9r-3" value="历史心拍数据" style="shape=folder;fontStyle=1;spacingTop=10;tabWidth=50;tabHeight=17;tabPosition=left;html=1;rounded=0;shadow=0;comic=0;labelBackgroundColor=none;strokeColor=#000000;strokeWidth=1;fillColor=#ffffff;fontFamily=Verdana;fontSize=10;fontColor=#000000;align=center;" vertex="1" parent="1">
          <mxGeometry x="640.5" y="640" width="112" height="60" as="geometry" />
        </mxCell>
        <mxCell id="7v98zSWwHf_MlhIp9o9r-4" value="历史时间范围" style="shape=folder;fontStyle=1;spacingTop=10;tabWidth=50;tabHeight=17;tabPosition=left;html=1;rounded=0;shadow=0;comic=0;labelBackgroundColor=none;strokeColor=#000000;strokeWidth=1;fillColor=#ffffff;fontFamily=Verdana;fontSize=10;fontColor=#000000;align=center;" vertex="1" parent="1">
          <mxGeometry x="829.71" y="640" width="112" height="60" as="geometry" />
        </mxCell>
        <mxCell id="7v98zSWwHf_MlhIp9o9r-5" value="数据自动清理" style="shape=folder;fontStyle=1;spacingTop=10;tabWidth=50;tabHeight=17;tabPosition=left;html=1;rounded=0;shadow=0;comic=0;labelBackgroundColor=none;strokeColor=#000000;strokeWidth=1;fillColor=#ffffff;fontFamily=Verdana;fontSize=10;fontColor=#000000;align=center;" vertex="1" parent="1">
          <mxGeometry x="740" y="750" width="71.42" height="40" as="geometry" />
        </mxCell>
        <mxCell id="7v98zSWwHf_MlhIp9o9r-6" value="数据自动上传" style="shape=folder;fontStyle=1;spacingTop=10;tabWidth=50;tabHeight=17;tabPosition=left;html=1;rounded=0;shadow=0;comic=0;labelBackgroundColor=none;strokeColor=#000000;strokeWidth=1;fillColor=#ffffff;fontFamily=Verdana;fontSize=10;fontColor=#000000;align=center;" vertex="1" parent="1">
          <mxGeometry x="850" y="750" width="71.42" height="40" as="geometry" />
        </mxCell>
        <mxCell id="7v98zSWwHf_MlhIp9o9r-7" value="智能检测算法" style="shape=folder;fontStyle=1;spacingTop=10;tabWidth=50;tabHeight=17;tabPosition=left;html=1;rounded=0;shadow=0;comic=0;labelBackgroundColor=none;strokeColor=#000000;strokeWidth=1;fillColor=#ffffff;fontFamily=Verdana;fontSize=10;fontColor=#000000;align=center;" vertex="1" parent="1">
          <mxGeometry x="450.5" y="731.5" width="79.5" height="40" as="geometry" />
        </mxCell>
        <mxCell id="7v98zSWwHf_MlhIp9o9r-12" value="数据自动分析" style="shape=folder;fontStyle=1;spacingTop=10;tabWidth=50;tabHeight=17;tabPosition=left;html=1;rounded=0;shadow=0;comic=0;labelBackgroundColor=none;strokeColor=#000000;strokeWidth=1;fillColor=#ffffff;fontFamily=Verdana;fontSize=10;fontColor=#000000;align=center;" vertex="1" parent="1">
          <mxGeometry x="572.3299999999999" y="731.5" width="71.42" height="40" as="geometry" />
        </mxCell>
        <mxCell id="7v98zSWwHf_MlhIp9o9r-13" style="edgeStyle=none;rounded=0;html=1;dashed=1;labelBackgroundColor=none;startFill=0;endArrow=open;endFill=0;endSize=10;fontFamily=Verdana;fontSize=10;entryX=0;entryY=0;entryDx=81;entryDy=17;entryPerimeter=0;" edge="1" parent="1" source="7v98zSWwHf_MlhIp9o9r-6" target="co7zm-NExlbX-ooihcgG-6">
          <mxGeometry relative="1" as="geometry">
            <mxPoint x="722" y="844" as="targetPoint" />
            <mxPoint x="860" y="793" as="sourcePoint" />
          </mxGeometry>
        </mxCell>
        <mxCell id="7v98zSWwHf_MlhIp9o9r-14" style="edgeStyle=none;rounded=0;html=1;dashed=1;labelBackgroundColor=none;startFill=0;endArrow=open;endFill=0;endSize=10;fontFamily=Verdana;fontSize=10;exitX=0.5;exitY=1;exitDx=0;exitDy=0;exitPerimeter=0;entryX=0;entryY=0;entryDx=112;entryDy=17;entryPerimeter=0;" edge="1" parent="1" source="7v98zSWwHf_MlhIp9o9r-5" target="6e0c8c40b5770093-49">
          <mxGeometry relative="1" as="geometry">
            <mxPoint x="722" y="844" as="targetPoint" />
            <mxPoint x="860" y="793" as="sourcePoint" />
          </mxGeometry>
        </mxCell>
        <mxCell id="7v98zSWwHf_MlhIp9o9r-15" style="edgeStyle=none;rounded=0;html=1;dashed=1;labelBackgroundColor=none;startFill=0;endArrow=open;endFill=0;endSize=10;fontFamily=Verdana;fontSize=10;" edge="1" parent="1" source="7v98zSWwHf_MlhIp9o9r-10" target="7v98zSWwHf_MlhIp9o9r-4">
          <mxGeometry relative="1" as="geometry">
            <mxPoint x="722" y="844" as="targetPoint" />
            <mxPoint x="860" y="793" as="sourcePoint" />
          </mxGeometry>
        </mxCell>
        <mxCell id="7v98zSWwHf_MlhIp9o9r-16" style="edgeStyle=none;rounded=0;html=1;dashed=1;labelBackgroundColor=none;startFill=0;endArrow=open;endFill=0;endSize=10;fontFamily=Verdana;fontSize=10;" edge="1" parent="1" source="7v98zSWwHf_MlhIp9o9r-10" target="7v98zSWwHf_MlhIp9o9r-3">
          <mxGeometry relative="1" as="geometry">
            <mxPoint x="851" y="650" as="targetPoint" />
            <mxPoint x="700" y="549" as="sourcePoint" />
          </mxGeometry>
        </mxCell>
        <mxCell id="7v98zSWwHf_MlhIp9o9r-17" style="edgeStyle=none;rounded=0;html=1;dashed=1;labelBackgroundColor=none;startFill=0;endArrow=open;endFill=0;endSize=10;fontFamily=Verdana;fontSize=10;entryX=0;entryY=0;entryDx=112;entryDy=17;entryPerimeter=0;" edge="1" parent="1" source="7v98zSWwHf_MlhIp9o9r-10" target="co7zm-NExlbX-ooihcgG-11">
          <mxGeometry relative="1" as="geometry">
            <mxPoint x="696" y="650" as="targetPoint" />
            <mxPoint x="662" y="550" as="sourcePoint" />
          </mxGeometry>
        </mxCell>
        <mxCell id="7v98zSWwHf_MlhIp9o9r-18" style="edgeStyle=none;rounded=0;html=1;dashed=1;labelBackgroundColor=none;startFill=0;endArrow=open;endFill=0;endSize=10;fontFamily=Verdana;fontSize=10;entryX=0;entryY=0;entryDx=25;entryDy=0;entryPerimeter=0;" edge="1" parent="1" source="7v98zSWwHf_MlhIp9o9r-1" target="co7zm-NExlbX-ooihcgG-11">
          <mxGeometry relative="1" as="geometry">
            <mxPoint x="593" y="667" as="targetPoint" />
            <mxPoint x="637" y="550" as="sourcePoint" />
          </mxGeometry>
        </mxCell>
        <mxCell id="7v98zSWwHf_MlhIp9o9r-19" style="edgeStyle=none;rounded=0;html=1;dashed=1;labelBackgroundColor=none;startFill=0;endArrow=open;endFill=0;endSize=10;fontFamily=Verdana;fontSize=10;" edge="1" parent="1" source="7v98zSWwHf_MlhIp9o9r-1" target="7v98zSWwHf_MlhIp9o9r-3">
          <mxGeometry relative="1" as="geometry">
            <mxPoint x="534" y="650" as="targetPoint" />
            <mxPoint x="524" y="550" as="sourcePoint" />
          </mxGeometry>
        </mxCell>
        <mxCell id="7v98zSWwHf_MlhIp9o9r-20" style="edgeStyle=none;rounded=0;html=1;dashed=1;labelBackgroundColor=none;startFill=0;endArrow=open;endFill=0;endSize=10;fontFamily=Verdana;fontSize=10;" edge="1" parent="1" source="7v98zSWwHf_MlhIp9o9r-1" target="7v98zSWwHf_MlhIp9o9r-4">
          <mxGeometry relative="1" as="geometry">
            <mxPoint x="673" y="650" as="targetPoint" />
            <mxPoint x="560" y="550" as="sourcePoint" />
          </mxGeometry>
        </mxCell>
        <mxCell id="7v98zSWwHf_MlhIp9o9r-21" style="edgeStyle=none;rounded=0;html=1;dashed=1;labelBackgroundColor=none;startFill=0;endArrow=open;endFill=0;endSize=10;fontFamily=Verdana;fontSize=10;" edge="1" parent="1" source="7v98zSWwHf_MlhIp9o9r-12" target="6e0c8c40b5770093-49">
          <mxGeometry relative="1" as="geometry">
            <mxPoint x="696" y="650" as="targetPoint" />
            <mxPoint x="662" y="550" as="sourcePoint" />
          </mxGeometry>
        </mxCell>
        <mxCell id="7v98zSWwHf_MlhIp9o9r-22" style="edgeStyle=none;rounded=0;html=1;dashed=1;labelBackgroundColor=none;startFill=0;endArrow=open;endFill=0;endSize=10;fontFamily=Verdana;fontSize=10;" edge="1" parent="1" source="7v98zSWwHf_MlhIp9o9r-12" target="7v98zSWwHf_MlhIp9o9r-7">
          <mxGeometry relative="1" as="geometry">
            <mxPoint x="660" y="830" as="targetPoint" />
            <mxPoint x="664" y="787" as="sourcePoint" />
          </mxGeometry>
        </mxCell>
        <mxCell id="7v98zSWwHf_MlhIp9o9r-23" style="edgeStyle=none;rounded=0;html=1;dashed=1;labelBackgroundColor=none;startFill=0;endArrow=open;endFill=0;endSize=10;fontFamily=Verdana;fontSize=10;entryX=0;entryY=0;entryDx=81;entryDy=17;entryPerimeter=0;" edge="1" parent="1" source="7v98zSWwHf_MlhIp9o9r-3" target="6e0c8c40b5770093-49">
          <mxGeometry relative="1" as="geometry">
            <mxPoint x="660" y="830" as="targetPoint" />
            <mxPoint x="628" y="782" as="sourcePoint" />
          </mxGeometry>
        </mxCell>
        <mxCell id="7v98zSWwHf_MlhIp9o9r-24" style="edgeStyle=none;rounded=0;html=1;dashed=1;labelBackgroundColor=none;startFill=0;endArrow=open;endFill=0;endSize=10;fontFamily=Verdana;fontSize=10;" edge="1" parent="1" source="co7zm-NExlbX-ooihcgG-11" target="7v98zSWwHf_MlhIp9o9r-3">
          <mxGeometry relative="1" as="geometry">
            <mxPoint x="593" y="667" as="targetPoint" />
            <mxPoint x="637" y="550" as="sourcePoint" />
          </mxGeometry>
        </mxCell>
        <mxCell id="7v98zSWwHf_MlhIp9o9r-25" style="edgeStyle=none;rounded=0;html=1;dashed=1;labelBackgroundColor=none;startFill=0;endArrow=open;endFill=0;endSize=10;fontFamily=Verdana;fontSize=10;" edge="1" parent="1" source="co7zm-NExlbX-ooihcgG-11" target="7v98zSWwHf_MlhIp9o9r-7">
          <mxGeometry relative="1" as="geometry">
            <mxPoint x="651" y="680" as="targetPoint" />
            <mxPoint x="593" y="680" as="sourcePoint" />
          </mxGeometry>
        </mxCell>
      </root>
    </mxGraphModel>
  </diagram>
</mxfile>
